# xmcd
#
# Track frame offsets:
#	182
#	11617
#	24712
#	36775
#	51157
#	71162
#	82072
#	111005
#	130237
#	139997
#	157790
#	175297
#	192665
#	208097
#	226160
#	243367
#
# Disc length: 3390
#
# Revision: 2
# Processed by: cddbd v1.5.1PL0 Copyright (c) Steve Scherf et al.
# Submitted via: CDex 1.30Release
# Normalized: r1:TDELIM( - )
#
DISCID=e10d3c10
DTITLE=Various Artist - Best Of Blues Piano
DYEAR=1900
DGENRE=Blues
TTITLE0=Little Brother Montgomery - No Special Rider
TTITLE1=Sunnyland Slim - She's Got A Thing Going On
TTITLE2=Eddie Boyd - Come Home
TTITLE3=Pinetop Perkins - Take It Easy Baby
TTITLE4=Big Moose Walker - Anna Lee
TTITLE5=Jimmy Walker - I Had Lots Of Troubles
TTITLE6=Al Broussard - Back Door Blues
TTITLE7=Henry Gray - Cold Chills
TTITLE8=Mose Vinson - Tell Me Like It Is
TTITLE9=Booker T. Laury - You Can Go Your Way
TTITLE10=Henry Townsend - Going Back Home
TTITLE11=Piano Slim - Blues At Mid-Nite
TTITLE12=Big Joe Duskin - Rol 'Em Pete
TTITLE13=Robert Shaw - Ma Grinder
TTITLE14=Charles Brown - Driftin' Blues
TTITLE15=Jimmy McCracklin - I Wanna Make Love To You
EXTD=ID3G:   0
EXTT0=
EXTT1=
EXTT2=
EXTT3=
EXTT4=
EXTT5=
EXTT6=
EXTT7=
EXTT8=
EXTT9=
EXTT10=
EXTT11=
EXTT12=
EXTT13=
EXTT14=
EXTT15=
PLAYORDER=
